<svg width="255" height="23" viewBox="0 0 255 23" fill="none" xmlns="http://www.w3.org/2000/svg">
<rect width="255" height="23" fill="#003366"/>
<path d="M8.07767 13.503C8.07767 14.1357 8.21633 14.6557 8.49367 15.063C8.771 15.4617 9.226 15.661 9.85867 15.661C10.1187 15.661 10.3873 15.6263 10.6647 15.557C10.9507 15.4877 11.3017 15.3707 11.7177 15.206L12.1987 16.558C11.7307 16.766 11.2973 16.9133 10.8987 17C10.5087 17.0867 10.1317 17.13 9.76767 17.13C9.03967 17.13 8.42867 16.974 7.93467 16.662C7.44933 16.35 7.08533 15.921 6.84267 15.375C6.6 14.829 6.47867 14.205 6.47867 13.503V11.644C6.47867 10.942 6.6 10.318 6.84267 9.772C7.08533 9.226 7.44933 8.80133 7.93467 8.498C8.42867 8.186 9.03967 8.03 9.76767 8.03C10.123 8.03 10.4913 8.07333 10.8727 8.16C11.254 8.238 11.67 8.37667 12.1207 8.576L11.6397 9.954C11.241 9.78933 10.9073 9.67233 10.6387 9.603C10.37 9.53367 10.11 9.499 9.85867 9.499C9.226 9.499 8.771 9.69833 8.49367 10.097C8.21633 10.4957 8.07767 11.0113 8.07767 11.644V13.503ZM20.0155 11.644V13.503C20.0155 14.6297 19.7339 15.518 19.1705 16.168C18.6072 16.8093 17.7839 17.13 16.7005 17.13C15.6085 17.13 14.7809 16.8093 14.2175 16.168C13.6629 15.518 13.3855 14.6297 13.3855 13.503V11.644C13.3855 10.5173 13.6629 9.63333 14.2175 8.992C14.7809 8.35067 15.6085 8.03 16.7005 8.03C17.7839 8.03 18.6072 8.35067 19.1705 8.992C19.7339 9.63333 20.0155 10.5173 20.0155 11.644ZM18.4165 11.644C18.4165 10.9333 18.2779 10.4003 18.0005 10.045C17.7232 9.681 17.2899 9.499 16.7005 9.499C16.1112 9.499 15.6779 9.681 15.4005 10.045C15.1232 10.4003 14.9845 10.9333 14.9845 11.644V13.503C14.9845 14.2137 15.1232 14.751 15.4005 15.115C15.6779 15.479 16.1112 15.661 16.7005 15.661C17.2899 15.661 17.7232 15.479 18.0005 15.115C18.2779 14.751 18.4165 14.2137 18.4165 13.503V11.644ZM22.078 17V8.16H23.508C24.1926 9.05267 24.8426 9.99733 25.458 10.994C26.0733 11.982 26.6323 13.0003 27.135 14.049L27.018 11.41V8.16H28.513V17H27.083C26.5283 15.908 25.952 14.8117 25.354 13.711C24.7646 12.6017 24.1363 11.5573 23.469 10.578L23.573 13.62V17H22.078ZM32.148 13.503C32.148 14.1357 32.2866 14.6557 32.564 15.063C32.8413 15.4617 33.2963 15.661 33.929 15.661C34.189 15.661 34.4576 15.6263 34.735 15.557C35.021 15.4877 35.372 15.3707 35.788 15.206L36.269 16.558C35.801 16.766 35.3676 16.9133 34.969 17C34.579 17.0867 34.202 17.13 33.838 17.13C33.11 17.13 32.499 16.974 32.005 16.662C31.5196 16.35 31.1556 15.921 30.913 15.375C30.6703 14.829 30.549 14.205 30.549 13.503V11.644C30.549 10.942 30.6703 10.318 30.913 9.772C31.1556 9.226 31.5196 8.80133 32.005 8.498C32.499 8.186 33.11 8.03 33.838 8.03C34.1933 8.03 34.5616 8.07333 34.943 8.16C35.3243 8.238 35.7403 8.37667 36.191 8.576L35.71 9.954C35.3113 9.78933 34.9776 9.67233 34.709 9.603C34.4403 9.53367 34.1803 9.499 33.929 9.499C33.2963 9.499 32.8413 9.69833 32.564 10.097C32.2866 10.4957 32.148 11.0113 32.148 11.644V13.503ZM39.4563 13.75V17H37.8963V8.16H40.8473C41.74 8.16 42.4247 8.38967 42.9013 8.849C43.3867 9.29967 43.6293 9.90633 43.6293 10.669V11.228C43.6293 11.7307 43.521 12.1727 43.3043 12.554C43.0877 12.9353 42.7756 13.2257 42.3683 13.425C43.079 14.6383 43.6857 15.83 44.1883 17H42.4073C41.974 15.9167 41.4583 14.8333 40.8603 13.75H39.4563ZM40.8473 9.59H39.4563V12.32H40.8473C41.2286 12.32 41.519 12.2247 41.7183 12.034C41.9263 11.8347 42.0303 11.566 42.0303 11.228V10.669C42.0303 10.3397 41.9263 10.0797 41.7183 9.889C41.519 9.68967 41.2286 9.59 40.8473 9.59ZM50.9402 15.505V17H45.8182V8.16H50.8102V9.655H47.3782V11.774H50.4202V13.269H47.3782V15.505H50.9402ZM51.7349 9.655V8.16H58.2349V9.655H55.7649V17H54.2049V9.655H51.7349ZM65.8837 11.644V13.503C65.8837 14.6297 65.602 15.518 65.0387 16.168C64.4754 16.8093 63.652 17.13 62.5687 17.13C61.4767 17.13 60.649 16.8093 60.0857 16.168C59.531 15.518 59.2537 14.6297 59.2537 13.503V11.644C59.2537 10.5173 59.531 9.63333 60.0857 8.992C60.649 8.35067 61.4767 8.03 62.5687 8.03C63.652 8.03 64.4754 8.35067 65.0387 8.992C65.602 9.63333 65.8837 10.5173 65.8837 11.644ZM64.2847 11.644C64.2847 10.9333 64.146 10.4003 63.8687 10.045C63.5914 9.681 63.158 9.499 62.5687 9.499C61.9794 9.499 61.546 9.681 61.2687 10.045C60.9914 10.4003 60.8527 10.9333 60.8527 11.644V13.503C60.8527 14.2137 60.9914 14.751 61.2687 15.115C61.546 15.479 61.9794 15.661 62.5687 15.661C63.158 15.661 63.5914 15.479 63.8687 15.115C64.146 14.751 64.2847 14.2137 64.2847 13.503V11.644ZM72.0642 13.542V17H70.9332V8.16H73.7022C74.5342 8.16 75.1755 8.381 75.6262 8.823C76.0855 9.25633 76.3152 9.837 76.3152 10.565V11.124C76.3152 11.644 76.1938 12.0947 75.9512 12.476C75.7172 12.8573 75.3792 13.139 74.9372 13.321C75.3098 13.919 75.6565 14.5257 75.9772 15.141C76.2978 15.7563 76.5925 16.376 76.8612 17H75.5612C75.0672 15.8213 74.4908 14.6687 73.8322 13.542H72.0642ZM73.7022 9.2H72.0642V12.502H73.7022C74.1442 12.502 74.4952 12.3807 74.7552 12.138C75.0152 11.8867 75.1452 11.5487 75.1452 11.124V10.565C75.1452 10.1317 75.0152 9.798 74.7552 9.564C74.4952 9.32133 74.1442 9.2 73.7022 9.2ZM83.1738 16.623C82.7838 16.8137 82.3938 16.9437 82.0038 17.013C81.6138 17.091 81.2541 17.13 80.9248 17.13C79.9975 17.13 79.3041 16.8657 78.8448 16.337C78.3941 15.8083 78.1688 15.0847 78.1688 14.166V13.386C78.1688 12.4933 78.3941 11.7783 78.8448 11.241C79.3041 10.7037 79.9498 10.435 80.7818 10.435C81.2238 10.435 81.6268 10.526 81.9908 10.708C82.3635 10.8813 82.6581 11.15 82.8748 11.514C83.1001 11.8693 83.2128 12.3287 83.2128 12.892C83.2128 13.256 83.1608 13.672 83.0568 14.14H79.2218V14.166C79.2218 14.8247 79.3561 15.323 79.6248 15.661C79.9021 15.999 80.3441 16.168 80.9508 16.168C81.2281 16.168 81.5315 16.1333 81.8608 16.064C82.1988 15.9947 82.5281 15.8863 82.8488 15.739L83.1738 16.623ZM80.7818 11.371C80.2791 11.371 79.8978 11.5357 79.6378 11.865C79.3865 12.1857 79.2478 12.6407 79.2218 13.23H82.1338C82.1598 13.074 82.1728 12.9267 82.1728 12.788C82.1728 12.3027 82.0341 11.9473 81.7568 11.722C81.4881 11.488 81.1631 11.371 80.7818 11.371ZM89.7382 10.565L87.4632 17H86.4622L84.1612 10.565H85.2662L86.3452 13.698L86.9952 15.661L87.6322 13.698L88.6852 10.565H89.7382ZM95.7041 16.623C95.3141 16.8137 94.9241 16.9437 94.5341 17.013C94.1441 17.091 93.7844 17.13 93.4551 17.13C92.5277 17.13 91.8344 16.8657 91.3751 16.337C90.9244 15.8083 90.6991 15.0847 90.6991 14.166V13.386C90.6991 12.4933 90.9244 11.7783 91.3751 11.241C91.8344 10.7037 92.4801 10.435 93.3121 10.435C93.7541 10.435 94.1571 10.526 94.5211 10.708C94.8937 10.8813 95.1884 11.15 95.4051 11.514C95.6304 11.8693 95.7431 12.3287 95.7431 12.892C95.7431 13.256 95.6911 13.672 95.5871 14.14H91.7521V14.166C91.7521 14.8247 91.8864 15.323 92.1551 15.661C92.4324 15.999 92.8744 16.168 93.4811 16.168C93.7584 16.168 94.0617 16.1333 94.3911 16.064C94.7291 15.9947 95.0584 15.8863 95.3791 15.739L95.7041 16.623ZM93.3121 11.371C92.8094 11.371 92.4281 11.5357 92.1681 11.865C91.9167 12.1857 91.7781 12.6407 91.7521 13.23H94.6641C94.6901 13.074 94.7031 12.9267 94.7031 12.788C94.7031 12.3027 94.5644 11.9473 94.2871 11.722C94.0184 11.488 93.6934 11.371 93.3121 11.371ZM99.1608 16.181C100.028 16.181 100.461 15.8863 100.461 15.297C100.461 15.0457 100.383 14.8463 100.227 14.699C100.071 14.5517 99.7848 14.426 99.3688 14.322L98.6538 14.14C98.1252 14.01 97.7308 13.7847 97.4708 13.464C97.2108 13.1347 97.0808 12.7447 97.0808 12.294C97.0808 11.9647 97.1545 11.6613 97.3018 11.384C97.4492 11.098 97.6832 10.8683 98.0038 10.695C98.3245 10.5217 98.7405 10.435 99.2518 10.435C99.5812 10.435 99.9148 10.474 100.253 10.552C100.6 10.6213 100.951 10.7427 101.306 10.916L100.968 11.813C100.335 11.527 99.7632 11.384 99.2518 11.384C98.4978 11.384 98.1208 11.6657 98.1208 12.229C98.1208 12.4457 98.1902 12.632 98.3288 12.788C98.4675 12.944 98.7275 13.0697 99.1088 13.165L99.8238 13.347C100.396 13.4857 100.816 13.711 101.085 14.023C101.354 14.335 101.488 14.738 101.488 15.232C101.488 15.5873 101.41 15.9123 101.254 16.207C101.107 16.493 100.864 16.7183 100.526 16.883C100.197 17.0477 99.7502 17.13 99.1868 17.13C98.8142 17.13 98.4415 17.091 98.0688 17.013C97.7048 16.935 97.3278 16.8093 96.9378 16.636L97.2238 15.752C97.5965 15.8993 97.9345 16.0077 98.2378 16.077C98.5412 16.1463 98.8488 16.181 99.1608 16.181ZM106.722 16.766C106.237 17.0087 105.721 17.13 105.175 17.13C104.707 17.13 104.339 17.0347 104.07 16.844C103.81 16.6533 103.624 16.3977 103.511 16.077C103.407 15.7563 103.355 15.401 103.355 15.011V11.501H102.237V10.565H103.355V8.771H104.421V10.565H106.527V11.501H104.421V14.972C104.421 15.4227 104.495 15.7347 104.642 15.908C104.798 16.0727 105.037 16.155 105.357 16.155C105.513 16.155 105.674 16.1377 105.838 16.103C106.012 16.0597 106.198 15.9903 106.397 15.895L106.722 16.766ZM109.256 8.992H108.06V7.796H109.256V8.992ZM109.191 17H108.125V10.565H109.191V17ZM114.518 11.436C114.276 11.436 114.003 11.501 113.699 11.631C113.396 11.7523 113.015 11.995 112.555 12.359V17H111.489V10.565H112.503V11.462C112.963 11.0807 113.37 10.8163 113.725 10.669C114.081 10.513 114.432 10.435 114.778 10.435C115.186 10.435 115.524 10.5303 115.792 10.721C116.061 10.903 116.26 11.1673 116.39 11.514C116.867 11.1067 117.292 10.825 117.664 10.669C118.046 10.513 118.418 10.435 118.782 10.435C119.354 10.435 119.792 10.6257 120.095 11.007C120.399 11.3797 120.55 11.9127 120.55 12.606V17H119.484V12.762C119.484 11.878 119.164 11.436 118.522 11.436C118.28 11.436 118.002 11.501 117.69 11.631C117.387 11.7523 117.006 11.995 116.546 12.359C116.555 12.3937 116.559 12.4327 116.559 12.476C116.559 12.5193 116.559 12.5627 116.559 12.606V17H115.493V12.762C115.493 11.878 115.168 11.436 114.518 11.436ZM123.919 8.992H122.723V7.796H123.919V8.992ZM123.854 17H122.788V10.565H123.854V17ZM130.819 16.623C130.429 16.8137 130.039 16.9437 129.649 17.013C129.259 17.091 128.9 17.13 128.57 17.13C127.643 17.13 126.95 16.8657 126.49 16.337C126.04 15.8083 125.814 15.0847 125.814 14.166V13.386C125.814 12.4933 126.04 11.7783 126.49 11.241C126.95 10.7037 127.595 10.435 128.427 10.435C128.869 10.435 129.272 10.526 129.636 10.708C130.009 10.8813 130.304 11.15 130.52 11.514C130.746 11.8693 130.858 12.3287 130.858 12.892C130.858 13.256 130.806 13.672 130.702 14.14H126.867V14.166C126.867 14.8247 127.002 15.323 127.27 15.661C127.548 15.999 127.99 16.168 128.596 16.168C128.874 16.168 129.177 16.1333 129.506 16.064C129.844 15.9947 130.174 15.8863 130.494 15.739L130.819 16.623ZM128.427 11.371C127.925 11.371 127.543 11.5357 127.283 11.865C127.032 12.1857 126.893 12.6407 126.867 13.23H129.779C129.805 13.074 129.818 12.9267 129.818 12.788C129.818 12.3027 129.68 11.9473 129.402 11.722C129.134 11.488 128.809 11.371 128.427 11.371ZM135.797 11.436C135.554 11.436 135.268 11.4967 134.939 11.618C134.618 11.7393 134.228 11.9863 133.769 12.359V17H132.703V10.565H133.717V11.462C134.176 11.072 134.592 10.8033 134.965 10.656C135.346 10.5087 135.71 10.435 136.057 10.435C136.655 10.435 137.11 10.6257 137.422 11.007C137.743 11.3797 137.903 11.9127 137.903 12.606V17H136.837V12.762C136.837 11.878 136.49 11.436 135.797 11.436ZM143.666 16.766C143.181 17.0087 142.665 17.13 142.119 17.13C141.651 17.13 141.283 17.0347 141.014 16.844C140.754 16.6533 140.568 16.3977 140.455 16.077C140.351 15.7563 140.299 15.401 140.299 15.011V11.501H139.181V10.565H140.299V8.771H141.365V10.565H143.471V11.501H141.365V14.972C141.365 15.4227 141.439 15.7347 141.586 15.908C141.742 16.0727 141.98 16.155 142.301 16.155C142.457 16.155 142.617 16.1377 142.782 16.103C142.955 16.0597 143.142 15.9903 143.341 15.895L143.666 16.766ZM150.164 13.386V14.166C150.164 15.0847 149.926 15.8083 149.449 16.337C148.981 16.8657 148.31 17.13 147.434 17.13C146.568 17.13 145.896 16.8657 145.419 16.337C144.943 15.8083 144.704 15.0847 144.704 14.166V13.386C144.704 12.4847 144.938 11.7697 145.406 11.241C145.883 10.7037 146.559 10.435 147.434 10.435C148.31 10.435 148.981 10.7037 149.449 11.241C149.926 11.7697 150.164 12.4847 150.164 13.386ZM149.059 13.386C149.059 12.7707 148.921 12.2897 148.643 11.943C148.366 11.5877 147.963 11.41 147.434 11.41C146.914 11.41 146.511 11.5877 146.225 11.943C145.948 12.2897 145.809 12.7707 145.809 13.386V14.166C145.809 14.8073 145.948 15.3013 146.225 15.648C146.511 15.9947 146.914 16.168 147.434 16.168C147.963 16.168 148.366 15.9947 148.643 15.648C148.921 15.3013 149.059 14.8073 149.059 14.166V13.386ZM153.675 16.181C154.541 16.181 154.975 15.8863 154.975 15.297C154.975 15.0457 154.897 14.8463 154.741 14.699C154.585 14.5517 154.299 14.426 153.883 14.322L153.168 14.14C152.639 14.01 152.245 13.7847 151.985 13.464C151.725 13.1347 151.595 12.7447 151.595 12.294C151.595 11.9647 151.668 11.6613 151.816 11.384C151.963 11.098 152.197 10.8683 152.518 10.695C152.838 10.5217 153.254 10.435 153.766 10.435C154.095 10.435 154.429 10.474 154.767 10.552C155.113 10.6213 155.464 10.7427 155.82 10.916L155.482 11.813C154.849 11.527 154.277 11.384 153.766 11.384C153.012 11.384 152.635 11.6657 152.635 12.229C152.635 12.4457 152.704 12.632 152.843 12.788C152.981 12.944 153.241 13.0697 153.623 13.165L154.338 13.347C154.91 13.4857 155.33 13.711 155.599 14.023C155.867 14.335 156.002 14.738 156.002 15.232C156.002 15.5873 155.924 15.9123 155.768 16.207C155.62 16.493 155.378 16.7183 155.04 16.883C154.71 17.0477 154.264 17.13 153.701 17.13C153.328 17.13 152.955 17.091 152.583 17.013C152.219 16.935 151.842 16.8093 151.452 16.636L151.738 15.752C152.11 15.8993 152.448 16.0077 152.752 16.077C153.055 16.1463 153.363 16.181 153.675 16.181ZM161.532 13.555C161.532 14.3697 161.693 14.998 162.013 15.44C162.343 15.8733 162.845 16.09 163.521 16.09C163.816 16.09 164.106 16.0553 164.392 15.986C164.678 15.9167 165.021 15.7953 165.419 15.622L165.796 16.584C165.372 16.7747 164.969 16.9133 164.587 17C164.206 17.0867 163.838 17.13 163.482 17.13C162.46 17.13 161.684 16.8093 161.155 16.168C160.627 15.5267 160.362 14.6557 160.362 13.555V11.605C160.362 10.5043 160.627 9.63333 161.155 8.992C161.684 8.35067 162.46 8.03 163.482 8.03C163.838 8.03 164.206 8.07333 164.587 8.16C164.977 8.24667 165.372 8.38533 165.77 8.576L165.406 9.551C164.704 9.239 164.076 9.083 163.521 9.083C162.845 9.083 162.343 9.29967 162.013 9.733C161.693 10.1663 161.532 10.7903 161.532 11.605V13.555ZM171.774 16.623C171.384 16.8137 170.994 16.9437 170.604 17.013C170.214 17.091 169.855 17.13 169.525 17.13C168.598 17.13 167.905 16.8657 167.445 16.337C166.995 15.8083 166.769 15.0847 166.769 14.166V13.386C166.769 12.4933 166.995 11.7783 167.445 11.241C167.905 10.7037 168.55 10.435 169.382 10.435C169.824 10.435 170.227 10.526 170.591 10.708C170.964 10.8813 171.259 11.15 171.475 11.514C171.701 11.8693 171.813 12.3287 171.813 12.892C171.813 13.256 171.761 13.672 171.657 14.14H167.822V14.166C167.822 14.8247 167.957 15.323 168.225 15.661C168.503 15.999 168.945 16.168 169.551 16.168C169.829 16.168 170.132 16.1333 170.461 16.064C170.799 15.9947 171.129 15.8863 171.449 15.739L171.774 16.623ZM169.382 11.371C168.88 11.371 168.498 11.5357 168.238 11.865C167.987 12.1857 167.848 12.6407 167.822 13.23H170.734C170.76 13.074 170.773 12.9267 170.773 12.788C170.773 12.3027 170.635 11.9473 170.357 11.722C170.089 11.488 169.764 11.371 169.382 11.371ZM176.687 11.436C176.444 11.436 176.171 11.501 175.868 11.631C175.565 11.7523 175.183 11.995 174.724 12.359V17H173.658V10.565H174.672V11.462C175.131 11.0807 175.539 10.8163 175.894 10.669C176.249 10.513 176.6 10.435 176.947 10.435C177.354 10.435 177.692 10.5303 177.961 10.721C178.23 10.903 178.429 11.1673 178.559 11.514C179.036 11.1067 179.46 10.825 179.833 10.669C180.214 10.513 180.587 10.435 180.951 10.435C181.523 10.435 181.961 10.6257 182.264 11.007C182.567 11.3797 182.719 11.9127 182.719 12.606V17H181.653V12.762C181.653 11.878 181.332 11.436 180.691 11.436C180.448 11.436 180.171 11.501 179.859 11.631C179.556 11.7523 179.174 11.995 178.715 12.359C178.724 12.3937 178.728 12.4327 178.728 12.476C178.728 12.5193 178.728 12.5627 178.728 12.606V17H177.662V12.762C177.662 11.878 177.337 11.436 176.687 11.436ZM189.624 16.623C189.234 16.8137 188.844 16.9437 188.454 17.013C188.064 17.091 187.704 17.13 187.375 17.13C186.448 17.13 185.754 16.8657 185.295 16.337C184.844 15.8083 184.619 15.0847 184.619 14.166V13.386C184.619 12.4933 184.844 11.7783 185.295 11.241C185.754 10.7037 186.4 10.435 187.232 10.435C187.674 10.435 188.077 10.526 188.441 10.708C188.814 10.8813 189.108 11.15 189.325 11.514C189.55 11.8693 189.663 12.3287 189.663 12.892C189.663 13.256 189.611 13.672 189.507 14.14H185.672V14.166C185.672 14.8247 185.806 15.323 186.075 15.661C186.352 15.999 186.794 16.168 187.401 16.168C187.678 16.168 187.982 16.1333 188.311 16.064C188.649 15.9947 188.978 15.8863 189.299 15.739L189.624 16.623ZM187.232 11.371C186.729 11.371 186.348 11.5357 186.088 11.865C185.837 12.1857 185.698 12.6407 185.672 13.23H188.584C188.61 13.074 188.623 12.9267 188.623 12.788C188.623 12.3027 188.484 11.9473 188.207 11.722C187.938 11.488 187.613 11.371 187.232 11.371ZM194.602 11.436C194.359 11.436 194.073 11.4967 193.744 11.618C193.423 11.7393 193.033 11.9863 192.574 12.359V17H191.508V10.565H192.522V11.462C192.981 11.072 193.397 10.8033 193.77 10.656C194.151 10.5087 194.515 10.435 194.862 10.435C195.46 10.435 195.915 10.6257 196.227 11.007C196.547 11.3797 196.708 11.9127 196.708 12.606V17H195.642V12.762C195.642 11.878 195.295 11.436 194.602 11.436ZM202.471 16.766C201.985 17.0087 201.47 17.13 200.924 17.13C200.456 17.13 200.087 17.0347 199.819 16.844C199.559 16.6533 199.372 16.3977 199.26 16.077C199.156 15.7563 199.104 15.401 199.104 15.011V11.501H197.986V10.565H199.104V8.771H200.17V10.565H202.276V11.501H200.17V14.972C200.17 15.4227 200.243 15.7347 200.391 15.908C200.547 16.0727 200.785 16.155 201.106 16.155C201.262 16.155 201.422 16.1377 201.587 16.103C201.76 16.0597 201.946 15.9903 202.146 15.895L202.471 16.766ZM205.004 8.992H203.808V7.796H205.004V8.992ZM204.939 17H203.873V10.565H204.939V17ZM207.991 13.399V14.166C207.991 14.8247 208.113 15.323 208.355 15.661C208.598 15.9903 208.984 16.155 209.512 16.155C210.032 16.155 210.591 16.0207 211.189 15.752L211.514 16.649C210.804 16.9697 210.115 17.13 209.447 17.13C208.615 17.13 207.983 16.8657 207.549 16.337C207.116 15.8083 206.899 15.0847 206.899 14.166V13.399C206.899 12.4803 207.116 11.7567 207.549 11.228C207.983 10.6993 208.615 10.435 209.447 10.435C209.759 10.435 210.08 10.4783 210.409 10.565C210.747 10.643 211.085 10.7557 211.423 10.903L211.098 11.813C210.812 11.6917 210.535 11.5963 210.266 11.527C210.006 11.4577 209.755 11.423 209.512 11.423C208.984 11.423 208.598 11.592 208.355 11.93C208.113 12.2593 207.991 12.749 207.991 13.399ZM214.208 8.992H213.012V7.796H214.208V8.992ZM214.143 17H213.077V10.565H214.143V17ZM221.537 13.386V14.166C221.537 15.0847 221.299 15.8083 220.822 16.337C220.354 16.8657 219.683 17.13 218.807 17.13C217.941 17.13 217.269 16.8657 216.792 16.337C216.316 15.8083 216.077 15.0847 216.077 14.166V13.386C216.077 12.4847 216.311 11.7697 216.779 11.241C217.256 10.7037 217.932 10.435 218.807 10.435C219.683 10.435 220.354 10.7037 220.822 11.241C221.299 11.7697 221.537 12.4847 221.537 13.386ZM220.432 13.386C220.432 12.7707 220.294 12.2897 220.016 11.943C219.739 11.5877 219.336 11.41 218.807 11.41C218.287 11.41 217.884 11.5877 217.598 11.943C217.321 12.2897 217.182 12.7707 217.182 13.386V14.166C217.182 14.8073 217.321 15.3013 217.598 15.648C217.884 15.9947 218.287 16.168 218.807 16.168C219.336 16.168 219.739 15.9947 220.016 15.648C220.294 15.3013 220.432 14.8073 220.432 14.166V13.386ZM225.048 16.181C225.914 16.181 226.348 15.8863 226.348 15.297C226.348 15.0457 226.27 14.8463 226.114 14.699C225.958 14.5517 225.672 14.426 225.256 14.322L224.541 14.14C224.012 14.01 223.618 13.7847 223.358 13.464C223.098 13.1347 222.968 12.7447 222.968 12.294C222.968 11.9647 223.041 11.6613 223.189 11.384C223.336 11.098 223.57 10.8683 223.891 10.695C224.211 10.5217 224.627 10.435 225.139 10.435C225.468 10.435 225.802 10.474 226.14 10.552C226.486 10.6213 226.837 10.7427 227.193 10.916L226.855 11.813C226.222 11.527 225.65 11.384 225.139 11.384C224.385 11.384 224.008 11.6657 224.008 12.229C224.008 12.4457 224.077 12.632 224.216 12.788C224.354 12.944 224.614 13.0697 224.996 13.165L225.711 13.347C226.283 13.4857 226.703 13.711 226.972 14.023C227.24 14.335 227.375 14.738 227.375 15.232C227.375 15.5873 227.297 15.9123 227.141 16.207C226.993 16.493 226.751 16.7183 226.413 16.883C226.083 17.0477 225.637 17.13 225.074 17.13C224.701 17.13 224.328 17.091 223.956 17.013C223.592 16.935 223.215 16.8093 222.825 16.636L223.111 15.752C223.483 15.8993 223.821 16.0077 224.125 16.077C224.428 16.1463 224.736 16.181 225.048 16.181ZM233.945 16.116C234.491 16.116 234.912 15.999 235.206 15.765C235.501 15.5223 235.648 15.1713 235.648 14.712C235.648 14.3307 235.544 14.01 235.336 13.75C235.137 13.49 234.808 13.2907 234.348 13.152L233.295 12.84C232.637 12.6407 232.151 12.3417 231.839 11.943C231.527 11.5357 231.371 11.0373 231.371 10.448C231.371 9.99733 231.458 9.59 231.631 9.226C231.813 8.862 232.099 8.57167 232.489 8.355C232.888 8.13833 233.408 8.03 234.049 8.03C234.439 8.03 234.842 8.07767 235.258 8.173C235.674 8.25967 236.095 8.40267 236.519 8.602L236.155 9.577C235.739 9.395 235.362 9.265 235.024 9.187C234.695 9.10033 234.379 9.057 234.075 9.057C233.581 9.057 233.196 9.161 232.918 9.369C232.65 9.56833 232.515 9.902 232.515 10.37C232.515 10.708 232.606 10.994 232.788 11.228C232.97 11.4533 233.295 11.6397 233.763 11.787L234.816 12.099C236.134 12.489 236.792 13.3297 236.792 14.621C236.792 15.3663 236.567 15.973 236.116 16.441C235.666 16.9003 234.942 17.13 233.945 17.13C233.538 17.13 233.105 17.0823 232.645 16.987C232.195 16.883 231.727 16.7227 231.241 16.506L231.592 15.544C232.052 15.752 232.463 15.8993 232.827 15.986C233.2 16.0727 233.573 16.116 233.945 16.116ZM239.182 17H237.986V15.817H239.182V17ZM245.895 17L245.232 14.946H241.878L241.215 17H240.11L243.048 8.16H244.114L247.065 17H245.895ZM242.697 12.398L242.203 13.919H244.894L244.4 12.398L243.555 9.668L242.697 12.398Z" fill="white"/>
</svg>
